<?xml version="1.0" encoding="UTF-8" standalone="no"?>
<!DOCTYPE svg PUBLIC "-//W3C//DTD SVG 1.1//EN" "http://www.w3.org/Graphics/SVG/1.1/DTD/svg11.dtd">
<svg width="100%" height="100%" viewBox="0 0 243 60" version="1.1" xmlns="http://www.w3.org/2000/svg" xmlns:xlink="http://www.w3.org/1999/xlink" xml:space="preserve" xmlns:serif="http://www.serif.com/" style="fill-rule:evenodd;clip-rule:evenodd;stroke-linejoin:round;stroke-miterlimit:2;">
    <g transform="matrix(1,0,0,1,-176.335,-704.566)">
        <g transform="matrix(0.572242,0,0,0.572242,203.137,737.13)">
            <path d="M0,-31.639L14.807,-50.578L17.258,-50.578L2.485,-31.639L0,-31.639ZM-17.258,-31.639L-2.451,-50.578L7.386,-50.578L-7.386,-31.639L-17.258,-31.639ZM-36.966,18.939L-46.838,6.284L-46.838,-37.967L-36.966,-50.578L-4.936,-50.578L-19.708,-31.639L-32.031,-31.639L-32.031,-0.044L2.485,-0.044L2.485,-6.328L-27.129,-6.328L-27.129,-25.311L17.258,-25.311L17.258,6.284L7.386,18.939L-36.966,18.939Z" style="fill:white;fill-rule:nonzero;"/>
        </g>
        <g transform="matrix(0.572242,0,0,0.572242,241.218,737.13)">
            <path d="M0,-31.639L14.807,-50.578L17.258,-50.578L2.485,-31.639L0,-31.639ZM-17.258,-31.639L-2.451,-50.578L7.421,-50.578L-7.386,-31.639L-17.258,-31.639ZM-41.902,18.939L-41.902,-50.578L-4.936,-50.578L-19.709,-31.639L-27.095,-31.639L-27.095,-25.311L17.258,-25.311L17.258,-6.328L-27.095,-6.328L-27.095,-0.044L17.258,-0.044L17.258,18.939L-41.902,18.939Z" style="fill:white;fill-rule:nonzero;"/>
        </g>
        <g transform="matrix(0.572242,0,0,0.572242,283.545,722.646)">
            <path d="M0,18.984L0,6.328L14.773,-12.655L14.773,0.001L0,18.984ZM0,-3.141L0,-6.327L9.837,-18.983L11.08,-17.39L0,-3.141ZM-39.452,44.251L-49.323,31.595L-49.323,-12.655L-39.452,-25.267L0,-25.267L0,-6.327L-34.516,-6.327L-34.516,25.268L0,25.268L0,22.126L14.773,3.142L14.773,31.595L4.901,44.251L-39.452,44.251Z" style="fill:white;fill-rule:nonzero;"/>
        </g>
        <g transform="matrix(0.572242,0,0,0.572242,296.226,704.566)">
            <path d="M0,85.315L0,82.173L14.807,63.19L14.807,66.376L0,85.315ZM56.709,75.845L56.709,44.25L35.758,71.111L14.807,44.25L14.807,53.72L0,72.704L0,60.048L14.807,41.064L14.807,37.923L0,56.862L0,0L35.758,45.799L36.966,44.25L71.482,0L71.482,75.845L56.709,75.845Z" style="fill:rgb(179,141,70);fill-rule:nonzero;"/>
        </g>
        <g transform="matrix(0.572242,0,0,0.572242,133.834,540.97)">
            <path d="M411.973,311.154L377.457,311.154L377.457,320.624L411.973,320.624L411.973,311.154ZM362.65,371.202L362.65,368.06L377.457,349.077L377.457,352.263L362.65,371.202ZM411.973,361.732L411.973,339.607L377.457,339.607L362.65,358.59L362.65,345.935L377.457,326.951L377.457,323.809L362.65,342.749L362.65,304.826L372.522,292.215L416.874,292.215L426.746,304.826L426.746,361.732L411.973,361.732Z" style="fill:rgb(179,141,70);fill-rule:nonzero;"/>
        </g>
        <g transform="matrix(0.572242,0,0,0.572242,409.065,737.13)">
            <path d="M0,-31.639L14.807,-50.578L17.258,-50.578L2.485,-31.639L0,-31.639ZM-17.258,-31.639L-2.451,-50.578L7.386,-50.578L-7.386,-31.639L-17.258,-31.639ZM-36.966,18.939L-46.838,6.284L-46.838,-37.967L-36.966,-50.578L-4.936,-50.578L-19.708,-31.639L-32.031,-31.639L-32.031,-0.044L17.258,-0.044L17.258,18.939L-36.966,18.939Z" style="fill:rgb(179,141,70);fill-rule:nonzero;"/>
        </g>
        <g transform="matrix(0.572242,0,0,0.572242,235.804,753.419)">
            <path d="M0,-6.668C34.375,-6.668 68.749,-6.669 103.124,-6.664C104.056,-6.664 103.901,-6.94 103.913,-4.906C103.921,-3.524 103.903,-2.14 103.92,-0.758C103.928,-0.136 103.83,0.113 103.551,0.052C103.426,0.025 103.3,0.048 103.174,0.048C34.389,0.048 -34.396,0.048 -103.181,0.045C-104.042,0.045 -103.906,0.272 -103.916,-1.596C-103.923,-3.018 -103.905,-4.441 -103.922,-5.862C-103.93,-6.484 -103.833,-6.728 -103.554,-6.673C-103.394,-6.642 -103.231,-6.668 -103.07,-6.668L0,-6.668Z" style="fill:rgb(179,141,70);fill-rule:nonzero;"/>
        </g>
        <g transform="matrix(0.572242,0,0,0.572242,320.529,753.328)">
            <path d="M0,-6.509C11.379,-6.509 22.758,-6.51 34.136,-6.505C34.445,-6.505 34.394,-6.781 34.398,-4.747C34.4,-3.365 34.394,-1.981 34.4,-0.599C34.402,0.023 34.37,0.272 34.278,0.211C34.236,0.184 34.195,0.207 34.153,0.207C11.384,0.207 -16.469,0.207 -39.239,0.204L-34.279,-6.514C-34.205,-6.517 -34.172,-6.509 -34.118,-6.509L0,-6.509Z" style="fill:rgb(179,141,70);fill-rule:nonzero;"/>
        </g>
        <g transform="matrix(0.572242,0,0,0.572242,382.305,753.328)">
            <path d="M0,-6.509C21.177,-6.509 42.354,-6.51 63.532,-6.505C64.106,-6.505 64.011,-6.781 64.018,-4.747C64.023,-3.365 64.011,-1.981 64.022,-0.599C64.027,0.023 63.966,0.272 63.795,0.211C63.718,0.184 63.64,0.207 63.563,0.207C21.186,0.207 -26.385,0.207 -68.761,0.204L-63.797,-6.514C-63.797,-6.514 -63.598,-6.509 -63.498,-6.509L0,-6.509Z" style="fill:rgb(179,141,70);fill-rule:nonzero;"/>
        </g>
        <g transform="matrix(0,-5.94157,-5.94157,0,176.778,763.813)">
            <path d="M1,0.047C1,0.062 0.988,0.075 0.973,0.075L0.027,0.075C0.012,0.075 0,0.062 0,0.047L0,-0.047C0,-0.062 0.012,-0.074 0.027,-0.074L0.973,-0.074C0.988,-0.074 1,-0.062 1,-0.047L1,0.047Z" style="fill:white;fill-rule:nonzero;"/>
        </g>
        <g transform="matrix(0,-6.19999,-6.19999,0,184.633,763.934)">
            <path d="M0.993,0.353C0.988,0.358 0.981,0.36 0.974,0.36L0.045,0.36C0.031,0.36 0.02,0.349 0.02,0.334L0.02,0.248C0.02,0.233 0.031,0.222 0.045,0.222L0.678,0.222L0.01,-0.295C0.004,-0.3 0,-0.307 0,-0.315L0,-0.334C0,-0.349 0.012,-0.36 0.026,-0.36L0.952,-0.36C0.966,-0.36 0.978,-0.349 0.978,-0.334L0.978,-0.246C0.978,-0.231 0.966,-0.219 0.952,-0.219L0.322,-0.219L0.99,0.292C0.996,0.297 1,0.304 1,0.312C1,0.312 1,0.335 1,0.335C1,0.342 0.997,0.348 0.993,0.353Z" style="fill:white;fill-rule:nonzero;"/>
        </g>
        <g transform="matrix(0,-6.17708,-6.17708,0,192.368,763.912)">
            <path d="M1,0.052C0.987,0.145 0.941,0.226 0.865,0.294C0.79,0.36 0.719,0.399 0.654,0.409C0.571,0.421 0.552,0.423 0.545,0.424C0.533,0.425 0.518,0.425 0.498,0.425C0.421,0.425 0.348,0.412 0.281,0.386C0.213,0.36 0.153,0.322 0.104,0.272C0.103,0.271 0.102,0.271 0.102,0.27C0.069,0.23 0.043,0.185 0.026,0.136C0.009,0.087 -0,0.036 -0,-0.015C-0,-0.059 0.007,-0.103 0.02,-0.145C0.033,-0.188 0.053,-0.227 0.08,-0.263C0.081,-0.264 0.081,-0.264 0.082,-0.265C0.133,-0.321 0.196,-0.363 0.267,-0.388C0.337,-0.413 0.417,-0.425 0.506,-0.425C0.52,-0.425 0.531,-0.413 0.531,-0.399L0.531,-0.071C0.531,-0.057 0.52,-0.045 0.506,-0.045L0.415,-0.045C0.4,-0.045 0.389,-0.057 0.389,-0.071L0.387,-0.27C0.362,-0.266 0.337,-0.259 0.314,-0.249C0.283,-0.237 0.254,-0.219 0.228,-0.195C0.202,-0.173 0.182,-0.145 0.168,-0.115C0.155,-0.084 0.148,-0.051 0.148,-0.016C0.148,0.029 0.159,0.072 0.181,0.112C0.203,0.152 0.241,0.189 0.293,0.224C0.345,0.258 0.413,0.275 0.493,0.275C0.573,0.275 0.646,0.256 0.712,0.218C0.777,0.18 0.821,0.131 0.845,0.067C0.852,0.043 0.855,0.02 0.855,-0.002C0.855,-0.052 0.841,-0.098 0.813,-0.139C0.785,-0.182 0.744,-0.218 0.692,-0.248C0.685,-0.252 0.68,-0.26 0.679,-0.268C0.678,-0.276 0.681,-0.284 0.687,-0.29L0.759,-0.361C0.767,-0.369 0.779,-0.371 0.789,-0.366C0.87,-0.326 0.927,-0.269 0.957,-0.197C0.985,-0.127 1,-0.045 1,0.048C1,0.049 1,0.051 1,0.052Z" style="fill:white;fill-rule:nonzero;"/>
        </g>
        <g transform="matrix(0,-5.94157,-5.94157,0,200.017,763.813)">
            <path d="M1,0.219C1,0.234 0.988,0.246 0.973,0.246L0.027,0.246C0.012,0.246 0,0.234 0,0.219L0,-0.219C0,-0.234 0.012,-0.246 0.027,-0.246L0.129,-0.246C0.144,-0.246 0.156,-0.234 0.156,-0.219L0.156,0.095L0.467,0.095L0.467,-0.219C0.467,-0.234 0.479,-0.246 0.494,-0.246L0.591,-0.246C0.606,-0.246 0.618,-0.234 0.618,-0.219L0.618,0.095L0.844,0.095L0.844,-0.219C0.844,-0.234 0.856,-0.246 0.871,-0.246L0.973,-0.246C0.988,-0.246 1,-0.234 1,-0.219L1,0.219Z" style="fill:white;fill-rule:nonzero;"/>
        </g>
        <g transform="matrix(0,-6.19999,-6.19999,0,207.907,763.934)">
            <path d="M0.993,0.352C0.988,0.357 0.981,0.36 0.974,0.36L0.045,0.36C0.031,0.36 0.02,0.349 0.02,0.334L0.02,0.248C0.02,0.233 0.031,0.222 0.045,0.222L0.678,0.222L0.01,-0.295C0.004,-0.3 0,-0.307 0,-0.316L0,-0.334C0,-0.349 0.012,-0.36 0.026,-0.36L0.952,-0.36C0.966,-0.36 0.978,-0.349 0.978,-0.334L0.978,-0.246C0.978,-0.231 0.966,-0.22 0.952,-0.22L0.322,-0.22L0.99,0.292C0.996,0.297 1,0.304 1,0.312C1,0.312 1,0.335 1,0.335C1,0.342 0.997,0.348 0.993,0.352Z" style="fill:white;fill-rule:nonzero;"/>
        </g>
        <g transform="matrix(0,-5.94157,-5.94157,0,215.569,763.813)">
            <path d="M1,0.047C1,0.062 0.988,0.075 0.973,0.075L0.027,0.075C0.012,0.075 0,0.062 0,0.047L0,-0.047C0,-0.062 0.012,-0.075 0.027,-0.075L0.973,-0.075C0.988,-0.075 1,-0.062 1,-0.047L1,0.047Z" style="fill:white;fill-rule:nonzero;"/>
        </g>
        <g transform="matrix(0,-5.94157,-5.94157,0,223.292,763.813)">
            <path d="M1,0.219C1,0.234 0.988,0.246 0.973,0.246L0.027,0.246C0.012,0.246 0,0.234 0,0.219L0,-0.219C0,-0.234 0.012,-0.246 0.027,-0.246L0.129,-0.246C0.144,-0.246 0.156,-0.234 0.156,-0.219L0.156,0.095L0.467,0.095L0.467,-0.219C0.467,-0.234 0.479,-0.246 0.494,-0.246L0.591,-0.246C0.606,-0.246 0.618,-0.234 0.618,-0.219L0.618,0.095L0.844,0.095L0.844,-0.219C0.844,-0.234 0.856,-0.246 0.871,-0.246L0.973,-0.246C0.988,-0.246 1,-0.234 1,-0.219L1,0.219Z" style="fill:white;fill-rule:nonzero;"/>
        </g>
        <g transform="matrix(0,-5.94172,-5.94172,0,231.412,763.813)">
            <path d="M0.992,0.288C0.987,0.293 0.98,0.296 0.973,0.296L0.027,0.296C0.012,0.296 0,0.284 0,0.269L0,0.168C0,0.153 0.012,0.14 0.027,0.14L0.416,0.14L0.013,-0.112C0.005,-0.117 0,-0.125 0,-0.135L0,-0.266C0,-0.276 0.006,-0.285 0.014,-0.29C0.023,-0.294 0.034,-0.294 0.042,-0.288L0.449,-0.014L0.449,-0.07C0.449,-0.073 0.449,-0.076 0.45,-0.079C0.463,-0.114 0.483,-0.147 0.511,-0.177C0.512,-0.177 0.512,-0.177 0.512,-0.178C0.541,-0.204 0.572,-0.223 0.606,-0.235C0.64,-0.247 0.676,-0.252 0.715,-0.252C0.787,-0.252 0.853,-0.232 0.908,-0.192C0.966,-0.151 0.996,-0.096 0.996,-0.03L1,0.268C1,0.269 1,0.269 1,0.27C1,0.277 0.997,0.283 0.992,0.288ZM0.848,0.14L0.848,0.014C0.848,0.008 0.847,0.001 0.844,-0.007C0.842,-0.016 0.839,-0.025 0.835,-0.033C0.825,-0.052 0.809,-0.067 0.787,-0.077C0.762,-0.089 0.735,-0.095 0.705,-0.095C0.669,-0.095 0.639,-0.086 0.615,-0.07C0.594,-0.056 0.584,-0.038 0.584,-0.012L0.584,0.14L0.848,0.14Z" style="fill:white;fill-rule:nonzero;"/>
        </g>
        <g transform="matrix(0,-5.94157,-5.94157,0,238.843,763.813)">
            <path d="M1,0.047C1,0.062 0.988,0.074 0.973,0.074L0.027,0.074C0.012,0.074 0,0.062 0,0.047L0,-0.047C0,-0.063 0.012,-0.075 0.027,-0.075L0.973,-0.075C0.988,-0.075 1,-0.063 1,-0.047L1,0.047Z" style="fill:white;fill-rule:nonzero;"/>
        </g>
        <g transform="matrix(0,-1.44402,-1.44402,0,239.172,757.758)">
            <path d="M1,0.06C1,0.102 0.976,0.142 0.938,0.16L0.159,0.541C0.124,0.558 0.084,0.555 0.052,0.535C0.02,0.514 -0,0.479 -0,0.44L-0,0.149C-0,0.114 0.017,0.081 0.045,0.059L0.823,-0.527C0.857,-0.553 0.902,-0.557 0.939,-0.538C0.976,-0.518 1,-0.48 1,-0.437L1,0.06Z" style="fill:white;fill-rule:nonzero;"/>
        </g>
        <g transform="matrix(0,-6.10112,-6.10112,0,246.56,763.813)">
            <path d="M1,0.018C1,0.029 0.993,0.039 0.983,0.043L0.035,0.387C0.027,0.39 0.018,0.389 0.011,0.384C0.004,0.379 0,0.371 0,0.362L0,0.261C0,0.25 0.007,0.24 0.018,0.236L0.286,0.142L0.286,-0.133L0.018,-0.227C0.007,-0.231 0,-0.241 0,-0.252L0,-0.362C0,-0.371 0.004,-0.379 0.011,-0.384C0.018,-0.389 0.027,-0.39 0.035,-0.387L0.983,-0.032C0.993,-0.028 1,-0.018 1,-0.007L1,0.018ZM0.708,0.009L0.422,-0.085L0.422,0.101L0.708,0.009Z" style="fill:white;fill-rule:nonzero;"/>
        </g>
        <g transform="matrix(0,-5.94276,-5.94276,0,262.122,763.813)">
            <path d="M1,0.318C1,0.327 0.995,0.336 0.987,0.341C0.979,0.346 0.969,0.346 0.961,0.342L0.445,0.072L0.027,0.072C0.012,0.072 0,0.06 0,0.045L0,-0.053C0,-0.068 0.012,-0.081 0.027,-0.081L0.445,-0.081L0.961,-0.342C0.969,-0.346 0.979,-0.346 0.987,-0.341C0.995,-0.336 1,-0.327 1,-0.318L1,-0.206C1,-0.195 0.993,-0.186 0.984,-0.181L0.614,-0.008L0.985,0.173C0.994,0.178 1,0.187 1,0.198L1,0.318Z" style="fill:white;fill-rule:nonzero;"/>
        </g>
        <g transform="matrix(0,-6.1391,-6.1391,0,277.616,763.912)">
            <path d="M0.988,0.084C0.978,0.123 0.953,0.159 0.912,0.191C0.872,0.222 0.834,0.24 0.797,0.246C0.762,0.252 0.739,0.254 0.725,0.254C0.672,0.254 0.623,0.241 0.581,0.213C0.539,0.187 0.505,0.151 0.481,0.107C0.481,0.106 0.48,0.105 0.48,0.104L0.424,-0.029C0.408,-0.06 0.4,-0.073 0.396,-0.078C0.394,-0.082 0.385,-0.091 0.363,-0.109C0.349,-0.12 0.324,-0.126 0.291,-0.126C0.269,-0.126 0.246,-0.122 0.226,-0.113C0.206,-0.105 0.19,-0.095 0.179,-0.082C0.167,-0.069 0.159,-0.056 0.154,-0.042C0.149,-0.029 0.146,-0.015 0.146,-0.001C0.146,0.034 0.16,0.064 0.189,0.091C0.219,0.118 0.256,0.131 0.302,0.131C0.311,0.131 0.32,0.136 0.325,0.145C0.329,0.153 0.329,0.163 0.324,0.171L0.274,0.256C0.268,0.266 0.256,0.271 0.245,0.268C0.201,0.258 0.164,0.245 0.136,0.231C0.106,0.217 0.078,0.196 0.055,0.169C0.054,0.168 0.054,0.167 0.053,0.166C0.018,0.116 -0,0.061 -0,0.001C-0,-0.067 0.022,-0.128 0.067,-0.182C0.067,-0.182 0.068,-0.183 0.068,-0.184C0.099,-0.213 0.134,-0.236 0.174,-0.251C0.213,-0.266 0.254,-0.273 0.296,-0.273C0.346,-0.273 0.394,-0.263 0.438,-0.242C0.483,-0.22 0.519,-0.189 0.545,-0.149C0.546,-0.147 0.547,-0.146 0.547,-0.145L0.633,0.053C0.656,0.089 0.69,0.106 0.735,0.106C0.755,0.106 0.774,0.102 0.793,0.095C0.815,0.085 0.831,0.072 0.84,0.057C0.849,0.042 0.854,0.024 0.854,0.003C0.854,-0.027 0.844,-0.053 0.824,-0.078C0.805,-0.102 0.779,-0.118 0.747,-0.124C0.739,-0.126 0.732,-0.131 0.729,-0.139C0.725,-0.147 0.726,-0.156 0.73,-0.163L0.775,-0.246C0.781,-0.257 0.793,-0.262 0.805,-0.259C0.853,-0.246 0.894,-0.222 0.927,-0.189C0.96,-0.156 0.98,-0.124 0.988,-0.092C0.996,-0.056 0.998,-0.045 0.999,-0.041C1,-0.033 1,-0.023 1,-0.011C1,0.017 0.996,0.049 0.988,0.084Z" style="fill:white;fill-rule:nonzero;"/>
        </g>
        <g transform="matrix(0,-5.94157,-5.94157,0,285.357,763.813)">
            <path d="M1,0.219C1,0.234 0.988,0.246 0.973,0.246L0.027,0.246C0.012,0.246 0,0.234 0,0.219L0,-0.219C0,-0.234 0.012,-0.246 0.027,-0.246L0.129,-0.246C0.144,-0.246 0.156,-0.234 0.156,-0.219L0.156,0.095L0.467,0.095L0.467,-0.219C0.467,-0.234 0.479,-0.246 0.494,-0.246L0.591,-0.246C0.606,-0.246 0.618,-0.234 0.618,-0.219L0.618,0.095L0.844,0.095L0.844,-0.219C0.844,-0.234 0.856,-0.246 0.871,-0.246L0.973,-0.246C0.988,-0.246 1,-0.234 1,-0.219L1,0.219Z" style="fill:white;fill-rule:nonzero;"/>
        </g>
        <g transform="matrix(0,-5.94157,-5.94157,0,293.479,763.813)">
            <path d="M0.992,0.288C0.987,0.293 0.98,0.296 0.973,0.296L0.027,0.296C0.012,0.296 0,0.284 0,0.269L0,0.168C0,0.153 0.012,0.141 0.027,0.141L0.416,0.141L0.013,-0.112C0.005,-0.117 0,-0.125 0,-0.135L0,-0.266C0,-0.276 0.006,-0.285 0.014,-0.29C0.023,-0.294 0.034,-0.294 0.042,-0.288L0.449,-0.014L0.449,-0.07C0.449,-0.073 0.449,-0.076 0.45,-0.079C0.463,-0.114 0.483,-0.147 0.511,-0.177C0.512,-0.177 0.512,-0.177 0.512,-0.178C0.541,-0.204 0.572,-0.223 0.606,-0.235C0.64,-0.247 0.676,-0.252 0.715,-0.252C0.787,-0.252 0.853,-0.232 0.908,-0.192C0.966,-0.15 0.996,-0.096 0.996,-0.03L1,0.269L1,0.269C1,0.276 0.997,0.283 0.992,0.288ZM0.848,0.141L0.848,0.014C0.848,0.008 0.847,0.001 0.844,-0.007C0.842,-0.016 0.839,-0.025 0.835,-0.033C0.825,-0.052 0.809,-0.067 0.787,-0.077C0.762,-0.089 0.735,-0.094 0.705,-0.094C0.669,-0.094 0.639,-0.086 0.615,-0.07C0.594,-0.056 0.584,-0.038 0.584,-0.012L0.584,0.141L0.848,0.141Z" style="fill:white;fill-rule:nonzero;"/>
        </g>
        <g transform="matrix(0,-6.11631,-6.11631,0,300.864,763.988)">
            <path d="M1,-0.234C1,-0.223 0.992,-0.212 0.981,-0.209L0.309,-0.003L0.981,0.206C0.993,0.209 1,0.219 1,0.231L1,0.339C1,0.347 0.996,0.355 0.989,0.36C0.982,0.365 0.974,0.367 0.965,0.364L0.018,0.04C0.007,0.037 0,0.027 0,0.015L0,-0.013C0,-0.025 0.007,-0.035 0.018,-0.038L0.965,-0.364C0.973,-0.367 0.982,-0.365 0.989,-0.36C0.996,-0.355 1,-0.347 1,-0.339L1,-0.234Z" style="fill:white;fill-rule:nonzero;"/>
        </g>
        <g transform="matrix(0,-5.94157,-5.94157,0,308.667,763.813)">
            <path d="M1,0.047C1,0.062 0.988,0.075 0.973,0.075L0.027,0.075C0.012,0.075 0,0.062 0,0.047L0,-0.047C0,-0.062 0.012,-0.075 0.027,-0.075L0.973,-0.075C0.988,-0.075 1,-0.062 1,-0.047L1,0.047Z" style="fill:white;fill-rule:nonzero;"/>
        </g>
        <g transform="matrix(0,-6.19989,-6.19989,0,316.225,763.912)">
            <path d="M0.996,-0.035C0.993,-0.016 0.99,0.004 0.984,0.023C0.979,0.042 0.969,0.066 0.955,0.096C0.94,0.127 0.915,0.159 0.88,0.192C0.845,0.225 0.795,0.258 0.731,0.291C0.666,0.325 0.587,0.343 0.496,0.343C0.358,0.343 0.235,0.299 0.133,0.214C0.133,0.213 0.132,0.213 0.132,0.212C0.088,0.17 0.054,0.122 0.033,0.07C0.011,0.018 -0,-0.037 -0,-0.093C-0,-0.134 0.005,-0.174 0.016,-0.213C0.026,-0.252 0.04,-0.291 0.059,-0.328C0.063,-0.337 0.072,-0.343 0.082,-0.343L0.21,-0.343C0.219,-0.343 0.228,-0.337 0.233,-0.328C0.237,-0.319 0.236,-0.309 0.23,-0.301L0.19,-0.247C0.159,-0.205 0.145,-0.159 0.145,-0.107C0.145,-0.058 0.159,-0.01 0.187,0.038C0.215,0.085 0.257,0.122 0.313,0.15C0.37,0.177 0.432,0.191 0.498,0.191C0.535,0.191 0.573,0.187 0.609,0.177C0.644,0.168 0.678,0.154 0.709,0.137C0.756,0.107 0.791,0.071 0.814,0.029C0.836,-0.012 0.848,-0.056 0.848,-0.104C0.848,-0.175 0.824,-0.239 0.773,-0.3C0.767,-0.307 0.765,-0.318 0.769,-0.327C0.774,-0.337 0.783,-0.343 0.793,-0.343L0.913,-0.343C0.922,-0.343 0.931,-0.337 0.936,-0.329L0.966,-0.271C0.967,-0.27 0.967,-0.269 0.968,-0.268C0.978,-0.238 0.986,-0.208 0.992,-0.178C0.997,-0.148 1,-0.119 1,-0.092C1,-0.074 0.999,-0.055 0.996,-0.035Z" style="fill:white;fill-rule:nonzero;"/>
        </g>
        <g transform="matrix(0,-5.94157,-5.94157,0,324.184,763.813)">
            <path d="M1,0.047C1,0.062 0.988,0.075 0.973,0.075L0.027,0.075C0.012,0.075 0,0.062 0,0.047L0,-0.047C0,-0.062 0.012,-0.075 0.027,-0.075L0.973,-0.075C0.988,-0.075 1,-0.062 1,-0.047L1,0.047Z" style="fill:white;fill-rule:nonzero;"/>
        </g>
        <g transform="matrix(0,-6.25306,-6.25306,0,332.017,763.965)">
            <path d="M0.85,0.314C0.752,0.397 0.633,0.439 0.494,0.439C0.357,0.439 0.239,0.396 0.144,0.309C0.049,0.222 -0,0.116 -0,-0.005C-0,-0.126 0.05,-0.229 0.15,-0.314C0.248,-0.397 0.367,-0.439 0.506,-0.439C0.643,-0.439 0.761,-0.396 0.856,-0.309C0.952,-0.222 1,-0.116 1,0.005C1,0.126 0.95,0.23 0.85,0.314ZM0.252,0.204C0.318,0.263 0.4,0.293 0.496,0.293C0.595,0.293 0.68,0.264 0.749,0.207C0.818,0.151 0.852,0.085 0.852,0.005C0.852,-0.077 0.819,-0.145 0.753,-0.204C0.687,-0.263 0.605,-0.293 0.509,-0.293C0.411,-0.293 0.326,-0.264 0.257,-0.207C0.188,-0.151 0.154,-0.085 0.154,-0.005C0.154,0.077 0.186,0.146 0.252,0.204Z" style="fill:white;fill-rule:nonzero;"/>
        </g>
        <g transform="matrix(0,-6.1391,-6.1391,0,339.682,763.912)">
            <path d="M0.988,0.084C0.978,0.123 0.953,0.159 0.912,0.191C0.872,0.222 0.834,0.24 0.797,0.246C0.762,0.252 0.739,0.254 0.725,0.254C0.672,0.254 0.623,0.241 0.581,0.214C0.539,0.187 0.505,0.151 0.481,0.107C0.481,0.106 0.48,0.105 0.48,0.105L0.424,-0.029C0.408,-0.06 0.4,-0.073 0.396,-0.078C0.394,-0.082 0.385,-0.091 0.363,-0.109C0.349,-0.12 0.324,-0.126 0.291,-0.126C0.269,-0.126 0.246,-0.122 0.226,-0.113C0.206,-0.105 0.19,-0.095 0.179,-0.082C0.167,-0.069 0.159,-0.056 0.154,-0.042C0.149,-0.029 0.146,-0.015 0.146,-0.001C0.146,0.034 0.16,0.064 0.189,0.091C0.219,0.118 0.256,0.131 0.302,0.131C0.311,0.131 0.32,0.136 0.325,0.145C0.329,0.153 0.329,0.163 0.324,0.171L0.274,0.256C0.268,0.266 0.256,0.271 0.245,0.268C0.201,0.258 0.164,0.245 0.136,0.231C0.106,0.217 0.078,0.196 0.055,0.169C0.054,0.168 0.054,0.167 0.053,0.167C0.018,0.117 -0,0.061 -0,0.001C-0,-0.066 0.022,-0.128 0.067,-0.182C0.067,-0.182 0.068,-0.183 0.068,-0.184C0.099,-0.213 0.134,-0.236 0.174,-0.251C0.213,-0.266 0.254,-0.273 0.296,-0.273C0.346,-0.273 0.394,-0.263 0.438,-0.242C0.483,-0.22 0.519,-0.189 0.545,-0.149C0.546,-0.147 0.547,-0.146 0.547,-0.145L0.633,0.053C0.656,0.089 0.69,0.106 0.735,0.106C0.755,0.106 0.774,0.102 0.793,0.095C0.815,0.085 0.831,0.072 0.84,0.057C0.849,0.042 0.854,0.024 0.854,0.003C0.854,-0.026 0.844,-0.053 0.824,-0.078C0.805,-0.102 0.779,-0.118 0.747,-0.124C0.739,-0.126 0.732,-0.131 0.729,-0.139C0.725,-0.147 0.726,-0.155 0.73,-0.163L0.775,-0.246C0.781,-0.257 0.793,-0.262 0.805,-0.259C0.853,-0.245 0.894,-0.222 0.927,-0.189C0.96,-0.155 0.98,-0.124 0.988,-0.092C0.996,-0.056 0.998,-0.045 0.999,-0.041C1,-0.033 1,-0.023 1,-0.011C1,0.017 0.996,0.049 0.988,0.084Z" style="fill:white;fill-rule:nonzero;"/>
        </g>
        <g transform="matrix(0,-6.17708,-6.17708,0,355.291,763.912)">
            <path d="M1,0.052C0.987,0.145 0.941,0.226 0.865,0.294C0.79,0.361 0.719,0.399 0.654,0.409C0.571,0.421 0.552,0.423 0.545,0.424C0.533,0.425 0.518,0.425 0.498,0.425C0.421,0.425 0.348,0.412 0.281,0.386C0.213,0.36 0.153,0.322 0.104,0.272C0.103,0.271 0.102,0.271 0.102,0.27C0.069,0.23 0.043,0.185 0.026,0.136C0.009,0.087 -0,0.036 -0,-0.015C-0,-0.059 0.007,-0.103 0.02,-0.145C0.033,-0.187 0.053,-0.227 0.08,-0.263C0.081,-0.264 0.081,-0.264 0.082,-0.265C0.133,-0.321 0.196,-0.363 0.267,-0.388C0.337,-0.412 0.417,-0.425 0.506,-0.425C0.52,-0.425 0.531,-0.413 0.531,-0.399L0.531,-0.071C0.531,-0.057 0.52,-0.045 0.506,-0.045L0.415,-0.045C0.4,-0.045 0.389,-0.057 0.389,-0.071L0.387,-0.27C0.362,-0.266 0.337,-0.259 0.314,-0.249C0.283,-0.237 0.254,-0.219 0.228,-0.195C0.202,-0.172 0.182,-0.145 0.168,-0.115C0.155,-0.084 0.148,-0.051 0.148,-0.016C0.148,0.029 0.159,0.072 0.181,0.112C0.203,0.152 0.241,0.19 0.293,0.224C0.345,0.258 0.413,0.275 0.493,0.275C0.573,0.275 0.646,0.256 0.712,0.218C0.777,0.181 0.821,0.131 0.845,0.067C0.852,0.043 0.855,0.02 0.855,-0.002C0.855,-0.052 0.841,-0.098 0.813,-0.139C0.785,-0.182 0.744,-0.218 0.692,-0.248C0.685,-0.252 0.68,-0.26 0.679,-0.268C0.678,-0.276 0.681,-0.284 0.687,-0.29L0.759,-0.361C0.767,-0.369 0.779,-0.371 0.789,-0.366C0.87,-0.326 0.927,-0.269 0.957,-0.197C0.985,-0.127 1,-0.045 1,0.048C1,0.049 1,0.051 1,0.052Z" style="fill:white;fill-rule:nonzero;"/>
        </g>
        <g transform="matrix(0,-5.94157,-5.94157,0,362.939,763.813)">
            <path d="M1,0.219C1,0.234 0.988,0.246 0.973,0.246L0.027,0.246C0.012,0.246 0,0.234 0,0.219L0,-0.219C0,-0.234 0.012,-0.246 0.027,-0.246L0.129,-0.246C0.144,-0.246 0.156,-0.234 0.156,-0.219L0.156,0.095L0.467,0.095L0.467,-0.219C0.467,-0.234 0.479,-0.246 0.494,-0.246L0.591,-0.246C0.606,-0.246 0.618,-0.234 0.618,-0.219L0.618,0.095L0.844,0.095L0.844,-0.219C0.844,-0.234 0.856,-0.246 0.871,-0.246L0.973,-0.246C0.988,-0.246 1,-0.234 1,-0.219L1,0.219Z" style="fill:white;fill-rule:nonzero;"/>
        </g>
        <g transform="matrix(0,-6.19988,-6.19988,0,370.831,763.934)">
            <path d="M0.993,0.353C0.988,0.358 0.981,0.36 0.974,0.36L0.045,0.36C0.031,0.36 0.02,0.349 0.02,0.334L0.02,0.248C0.02,0.233 0.031,0.222 0.045,0.222L0.678,0.222L0.01,-0.295C0.004,-0.3 0,-0.307 0,-0.315L0,-0.334C0,-0.349 0.012,-0.36 0.026,-0.36L0.952,-0.36C0.966,-0.36 0.978,-0.349 0.978,-0.334L0.978,-0.246C0.978,-0.231 0.966,-0.22 0.952,-0.22L0.322,-0.22L0.99,0.292C0.996,0.297 1,0.304 1,0.312C1,0.312 1,0.334 1,0.334C1,0.341 0.997,0.348 0.993,0.353Z" style="fill:white;fill-rule:nonzero;"/>
        </g>
        <g transform="matrix(0,-5.94157,-5.94157,0,378.456,763.813)">
            <path d="M1,0.219C1,0.234 0.988,0.246 0.973,0.246L0.027,0.246C0.012,0.246 0,0.234 0,0.219L0,-0.219C0,-0.234 0.012,-0.246 0.027,-0.246L0.129,-0.246C0.144,-0.246 0.156,-0.234 0.156,-0.219L0.156,0.095L0.467,0.095L0.467,-0.219C0.467,-0.234 0.479,-0.246 0.494,-0.246L0.591,-0.246C0.606,-0.246 0.618,-0.234 0.618,-0.219L0.618,0.095L0.844,0.095L0.844,-0.219C0.844,-0.234 0.856,-0.246 0.871,-0.246L0.973,-0.246C0.988,-0.246 1,-0.234 1,-0.219L1,0.219Z" style="fill:white;fill-rule:nonzero;"/>
        </g>
        <g transform="matrix(0,-5.94157,-5.94157,0,386.577,763.813)">
            <path d="M0.992,0.288C0.987,0.293 0.98,0.296 0.973,0.296L0.027,0.296C0.012,0.296 0,0.284 0,0.269L0,0.168C0,0.153 0.012,0.14 0.027,0.14L0.416,0.14L0.013,-0.112C0.005,-0.117 0,-0.125 0,-0.135L0,-0.266C0,-0.276 0.006,-0.285 0.014,-0.29C0.023,-0.294 0.034,-0.294 0.042,-0.288L0.449,-0.014L0.449,-0.07C0.449,-0.073 0.449,-0.076 0.45,-0.079C0.463,-0.114 0.483,-0.147 0.511,-0.177C0.512,-0.177 0.512,-0.177 0.512,-0.178C0.541,-0.204 0.572,-0.224 0.606,-0.235C0.64,-0.247 0.676,-0.252 0.715,-0.252C0.787,-0.252 0.853,-0.232 0.908,-0.192C0.966,-0.151 0.996,-0.096 0.996,-0.03L1,0.269L1,0.269C1,0.276 0.997,0.283 0.992,0.288ZM0.848,0.14L0.848,0.014C0.848,0.008 0.847,0.001 0.844,-0.007C0.842,-0.016 0.839,-0.025 0.835,-0.033C0.825,-0.052 0.809,-0.067 0.787,-0.078C0.762,-0.089 0.735,-0.095 0.705,-0.095C0.669,-0.095 0.639,-0.086 0.615,-0.07C0.594,-0.056 0.584,-0.038 0.584,-0.012L0.584,0.14L0.848,0.14Z" style="fill:white;fill-rule:nonzero;"/>
        </g>
        <g transform="matrix(0,-6.10112,-6.10112,0,393.966,763.813)">
            <path d="M1,0.018C1,0.029 0.993,0.039 0.983,0.043L0.035,0.387C0.027,0.39 0.018,0.389 0.011,0.384C0.004,0.379 0,0.371 0,0.362L0,0.261C0,0.25 0.007,0.24 0.018,0.236L0.286,0.142L0.286,-0.133L0.018,-0.227C0.007,-0.231 0,-0.241 0,-0.252L0,-0.362C0,-0.371 0.004,-0.379 0.011,-0.384C0.018,-0.389 0.027,-0.39 0.035,-0.387L0.983,-0.032C0.993,-0.028 1,-0.019 1,-0.007L1,0.018ZM0.708,0.009L0.422,-0.085L0.422,0.101L0.708,0.009Z" style="fill:white;fill-rule:nonzero;"/>
        </g>
        <g transform="matrix(0,-5.94157,-5.94157,0,401.689,763.813)">
            <path d="M1,0.199C1,0.214 0.988,0.226 0.973,0.226L0.027,0.226C0.012,0.226 0,0.214 0,0.199L0,-0.198C0,-0.214 0.012,-0.226 0.027,-0.226L0.129,-0.226C0.144,-0.226 0.156,-0.214 0.156,-0.198L0.156,0.071L0.973,0.071C0.988,0.071 1,0.084 1,0.099L1,0.199Z" style="fill:white;fill-rule:nonzero;"/>
        </g>
        <g transform="matrix(0,-5.94157,-5.94157,0,409.489,763.813)">
            <path d="M1,0.219C1,0.234 0.988,0.246 0.973,0.246L0.027,0.246C0.012,0.246 0,0.234 0,0.219L0,-0.219C0,-0.234 0.012,-0.246 0.027,-0.246L0.129,-0.246C0.144,-0.246 0.156,-0.234 0.156,-0.219L0.156,0.095L0.467,0.095L0.467,-0.219C0.467,-0.234 0.479,-0.246 0.494,-0.246L0.591,-0.246C0.606,-0.246 0.618,-0.234 0.618,-0.219L0.618,0.095L0.844,0.095L0.844,-0.219C0.844,-0.234 0.856,-0.246 0.871,-0.246L0.973,-0.246C0.988,-0.246 1,-0.234 1,-0.219L1,0.219Z" style="fill:white;fill-rule:nonzero;"/>
        </g>
        <g transform="matrix(0,-6.1391,-6.1391,0,417.264,763.912)">
            <path d="M0.988,0.084C0.978,0.123 0.953,0.159 0.912,0.191C0.872,0.222 0.834,0.24 0.797,0.246C0.762,0.252 0.739,0.254 0.725,0.254C0.672,0.254 0.623,0.241 0.581,0.213C0.539,0.187 0.505,0.151 0.481,0.107C0.481,0.106 0.48,0.105 0.48,0.104L0.424,-0.029C0.408,-0.06 0.4,-0.073 0.396,-0.078C0.394,-0.082 0.385,-0.091 0.363,-0.109C0.349,-0.12 0.324,-0.126 0.291,-0.126C0.269,-0.126 0.246,-0.122 0.226,-0.113C0.206,-0.105 0.19,-0.095 0.179,-0.082C0.167,-0.069 0.159,-0.056 0.154,-0.042C0.149,-0.029 0.146,-0.015 0.146,-0.001C0.146,0.034 0.16,0.064 0.189,0.091C0.219,0.118 0.256,0.131 0.302,0.131C0.311,0.131 0.32,0.136 0.325,0.145C0.329,0.153 0.329,0.163 0.324,0.171L0.274,0.256C0.268,0.266 0.256,0.271 0.245,0.268C0.201,0.257 0.164,0.245 0.136,0.231C0.106,0.217 0.078,0.196 0.055,0.169C0.054,0.168 0.054,0.167 0.053,0.166C0.018,0.117 -0,0.061 -0,0.001C-0,-0.067 0.022,-0.128 0.067,-0.182C0.067,-0.182 0.068,-0.183 0.068,-0.184C0.099,-0.213 0.134,-0.236 0.174,-0.251C0.213,-0.266 0.254,-0.273 0.296,-0.273C0.346,-0.273 0.394,-0.263 0.438,-0.242C0.483,-0.22 0.519,-0.189 0.545,-0.149C0.546,-0.147 0.547,-0.146 0.547,-0.145L0.633,0.053C0.656,0.089 0.69,0.106 0.735,0.106C0.755,0.106 0.774,0.102 0.793,0.095C0.815,0.085 0.831,0.072 0.84,0.057C0.849,0.042 0.854,0.024 0.854,0.003C0.854,-0.026 0.844,-0.053 0.824,-0.078C0.805,-0.102 0.779,-0.118 0.747,-0.124C0.739,-0.126 0.732,-0.131 0.729,-0.139C0.725,-0.147 0.726,-0.155 0.73,-0.163L0.775,-0.246C0.781,-0.257 0.793,-0.262 0.805,-0.259C0.853,-0.246 0.894,-0.222 0.927,-0.189C0.96,-0.156 0.98,-0.124 0.988,-0.092C0.996,-0.056 0.998,-0.045 0.999,-0.041C1,-0.033 1,-0.023 1,-0.011C1,0.017 0.996,0.049 0.988,0.084Z" style="fill:white;fill-rule:nonzero;"/>
        </g>
    </g>
</svg>
