<?xml version="1.0" encoding="UTF-8" standalone="no"?>
<!DOCTYPE svg PUBLIC "-//W3C//DTD SVG 1.1//EN" "http://www.w3.org/Graphics/SVG/1.1/DTD/svg11.dtd">
<svg width="100%" height="100%" viewBox="0 0 67 71" version="1.1" xmlns="http://www.w3.org/2000/svg" xmlns:xlink="http://www.w3.org/1999/xlink" xml:space="preserve" xmlns:serif="http://www.serif.com/" style="fill-rule:evenodd;clip-rule:evenodd;stroke-linejoin:round;stroke-miterlimit:2;">
    <g transform="matrix(1,0,0,1,-286.891,-118.459)">
        <g transform="matrix(0.383957,0,0,0.383957,320.229,174.531)">
            <path d="M0,-9.392L0,22.453L-86.829,22.453L-86.348,-31.845C-86.348,-31.845 -77.669,-9.392 -55.353,-9.392L0,-9.392Z" style="fill:rgb(53,63,75);fill-rule:nonzero;"/>
        </g>
        <g transform="matrix(28.7144,-49.7349,-49.7349,-28.7144,289.689,167.385)">
            <path d="M0.224,0.18L0.054,0.084C0.054,0.084 -0.047,-0.042 0.027,-0.171L0.242,-0.047L0.737,-0.18L1,-0.028L0.224,0.18Z" style="fill:url(#_Linear1);fill-rule:nonzero;"/>
        </g>
        <g transform="matrix(0.383957,0,0,0.383957,353.645,179.918)">
            <path d="M0,-70.87L0,-38.956C0,-27.321 -2.731,-15.804 -8.249,-5.556C-9.236,-3.725 -10.342,-1.863 -11.579,0C1.806,-36.894 -31.201,-38.788 -31.201,-38.788L-79.387,-38.788L-79.387,-70.87L0,-70.87Z" style="fill:rgb(179,141,70);fill-rule:nonzero;"/>
        </g>
        <g transform="matrix(23.101,-23.101,-23.101,-23.101,324.857,190.765)">
            <path d="M0.892,0.164C0.892,0.164 0.658,-0.061 0.433,0.164L0.262,0.335L-0,0.073L0.169,-0.096C0.21,-0.136 0.255,-0.172 0.305,-0.202C0.395,-0.256 0.541,-0.321 0.694,-0.303C0.717,-0.3 0.74,-0.297 0.762,-0.292C1.179,-0.097 0.921,0.193 0.921,0.193L0.892,0.164Z" style="fill:url(#_Linear2);fill-rule:nonzero;"/>
        </g>
        <g transform="matrix(-0.0896051,0.373355,0.373355,0.0896051,349.202,179.925)">
            <path d="M-0.016,-0.013C-0.01,-0.011 0.004,-0.014 0.01,-0.013" style="fill:rgb(248,170,3);fill-rule:nonzero;"/>
        </g>
    </g>
    <defs>
        <linearGradient id="_Linear1" x1="0" y1="0" x2="1" y2="0" gradientUnits="userSpaceOnUse" gradientTransform="matrix(1,-5.55112e-17,-5.55112e-17,-1,0,-3.3201e-06)"><stop offset="0" style="stop-color:rgb(18,21,26);stop-opacity:1"/><stop offset="1" style="stop-color:rgb(53,63,75);stop-opacity:1"/></linearGradient>
        <linearGradient id="_Linear2" x1="0" y1="0" x2="1" y2="0" gradientUnits="userSpaceOnUse" gradientTransform="matrix(1,0,0,-1,0,0.0146956)"><stop offset="0" style="stop-color:rgb(179,141,70);stop-opacity:1"/><stop offset="1" style="stop-color:rgb(88,68,35);stop-opacity:1"/></linearGradient>
    </defs>
</svg>
